<svg xmlns="http://www.w3.org/2000/svg" viewBox="0 0 776.78 910.19"><defs><style>.cls-1{fill:none;stroke:#79acc5;stroke-linecap:round;stroke-linejoin:round;stroke-width:10px;}</style></defs><title>Asset 1</title><g id="Layer_2" data-name="Layer 2"><g id="Layer_3" data-name="Layer 3"><path class="cls-1" d="M766.76,298.36c0,45.24-24.54,82.84-61,102.85-12.77,7-27.45,10.15-42,10.15H561.36c-1.2-29.76-8.44-53.38-21.61-70.57a82.32,82.32,0,0,0-11.87-12.57c-27.84-23-61.73-17-63.23-16.79A17.76,17.76,0,0,0,450.57,332a17.55,17.55,0,0,0,4.93,8.75,17.31,17.31,0,0,0,15.68,5.33c.2,0,19.2-3.22,34.18,9.25,12.47,10.25,19.51,29.65,20.71,56H94.88c-39.31,0-75.91-24.63-86.56-62.53A89.16,89.16,0,0,1,5,325c0-38.4,21.61-71.38,53.68-86.36a106.91,106.91,0,0,0,6.94,11.87,112.23,112.23,0,0,0,23,25,110.25,110.25,0,0,0,41.12,20.61,17.52,17.52,0,0,0,21.52-12.57,15.29,15.29,0,0,0,.1-7.94,17.33,17.33,0,0,0-12.57-13.57,10.92,10.92,0,0,1-1.61-.6A74.62,74.62,0,0,1,108,245.68a76,76,0,0,1-14.88-17.59A49.6,49.6,0,0,1,89,219.94c-.31-.6-.71-1-1-1.6l2.11-2.72a63.21,63.21,0,0,1-1.31-12.36c0-52.48,41.93-95.11,94.51-95.11,2.31,0,4.52.2,6.63.4a111,111,0,0,1,18.4,6.64c10.36,4.72,20.71,11.66,28.45,21.71a54.9,54.9,0,0,1,4.33,6.44,17.63,17.63,0,0,0,30.56-17.6c-.7-1.1-1.41-2-2-3A100.22,100.22,0,0,0,246.08,97c-16.39-12.57-34.78-19.4-49.16-23A95,95,0,0,1,287.1,8.72c32.37,0,60.72,16.39,77.91,41.22a120.17,120.17,0,0,1,4.73,20.21,141,141,0,0,1,.7,32.47A149.75,149.75,0,0,1,368.33,118,17.3,17.3,0,0,0,375,135a16.09,16.09,0,0,0,7.44,3.62,18.55,18.55,0,0,0,3.32.3,17.65,17.65,0,0,0,17.19-14.37,177.8,177.8,0,0,0,2.91-21.82,172,172,0,0,0-.8-32.67c-2.71-22.42-8.85-38.21-12.47-45.65a94.88,94.88,0,0,1,145.08,39,126.61,126.61,0,0,0-36.7,21,95.12,95.12,0,0,0-21.62,25.64,18.43,18.43,0,0,0-.8,2.51,17.31,17.31,0,0,0,7.24,21.52,17.84,17.84,0,0,0,24.13-6.44,44,44,0,0,1,3.22-4.92c7.83-11,18.79-18.3,29.65-23.33.81-.4,1.51-.7,2.21-1v.2a93.87,93.87,0,0,1,37.6-7.84,95.06,95.06,0,0,1,91.69,70.47,101.8,101.8,0,0,1-3.72,38.61,73.22,73.22,0,0,1-17.79,31A85.52,85.52,0,0,1,626,249.2c-12,5.53-25.94,9.35-42.13,11.46a17.5,17.5,0,0,0-14.88,15,19.32,19.32,0,0,0-.4,4.83,17.66,17.66,0,0,0,17.49,15.28,18.56,18.56,0,0,0,2.31-.1c35.29-4.63,63.34-16.29,83.75-34.79a108.81,108.81,0,0,0,15.79-17.39,107.2,107.2,0,0,0,6-9.45A119.18,119.18,0,0,0,708,194.11C743.13,215.72,766.76,254.13,766.76,298.36Z"/><path class="cls-1" d="M771.78,605.19A125.41,125.41,0,0,1,747,680.6l-1.31-.71A123.56,123.56,0,0,1,716.89,710a7,7,0,0,1-1.91,1.31,35,35,0,0,1-4,2.71v-.1c-1.91,1.31-3.72,2.62-5.73,3.82a124,124,0,0,0-5.13-19.1,112.21,112.21,0,0,0-14.68-28.35,22.27,22.27,0,0,1-1.51-1.81,109.3,109.3,0,0,0-23.32-22.82c-19.41-14.28-44.34-23.63-74.8-27.55a17.63,17.63,0,0,0-18.7,11.36,16.18,16.18,0,0,0-1,3.93,17.7,17.7,0,0,0,15.28,19.7c21.61,2.71,39.41,8.65,53.48,17.49a78.72,78.72,0,0,1,21.82,20c.6.9,1,1.91,1.61,2.81a83.3,83.3,0,0,1,12.46,32.08,102.76,102.76,0,0,1,.51,31.06c-.11.6.1,1.11,0,1.61a94.77,94.77,0,0,1-88.68,61.23c-1.4,0-2.81-.11-4.22-.21A168,168,0,0,0,570,783.75a149.39,149.39,0,0,0-13.78-29.56,107.62,107.62,0,0,0-10.55-14.68,17.64,17.64,0,0,0-25.84,24,5.84,5.84,0,0,1,.81,1c2.31,2.82,9.74,12.57,16,29.66a126.52,126.52,0,0,1,5.13,19.4c.8,3.83,1.4,7.75,1.91,12a94.14,94.14,0,0,1-19.51,43.73c-.5.6-.9,1.21-1.4,1.81a94.54,94.54,0,0,1-134.62,11,90.43,90.43,0,0,1-11.86-12.27A139,139,0,0,1,360.79,842c-8.44-20.11-8.54-34.49-8.54-35.59,0-.21-.1-.41-.1-.61a17.41,17.41,0,0,0-34.08-5,14.41,14.41,0,0,0-1,4.72c-.1,1.71-.6,35.69,24.33,75.7a101,101,0,0,1-16.69,12.37,93.87,93.87,0,0,1-37.6,7.84,95,95,0,0,1-90-64.74c22-2,49.06-9.45,69.77-30.67A17.31,17.31,0,0,0,271,789.07a16.73,16.73,0,0,0-4.33-8,18.28,18.28,0,0,0-5.33-3.52,17.77,17.77,0,0,0-17.09,2.11,19.6,19.6,0,0,0-2.51,1.71c-14,14.28-33.38,19.1-49.36,20.41a.35.35,0,0,1,.1-.2c-3.22.3-6,.4-9.25.4-1.41,0-2.72,0-4.12-.1-50.67-2.11-90.39-43.83-90.39-94.9a71,71,0,0,1,25.14-53.49,22.31,22.31,0,0,0,3.32-4.32,16,16,0,0,0,2-5.33,17.17,17.17,0,0,0-2.72-13.47c-.4-.5-.6-1.21-1-1.81A17.76,17.76,0,0,0,90.55,627,110.36,110.36,0,0,0,59.69,672,92.36,92.36,0,0,1,41.8,661.29C19.28,643.9,5,616.36,5,585.19a82,82,0,0,1,.5-8.65C9.62,534,48,503,90.75,503H243.37a.9.9,0,0,0-.1.5A171.4,171.4,0,0,0,243,536a131.19,131.19,0,0,0,6.73,32.17,95.06,95.06,0,0,0,21.11,35c17.3,18.1,41.42,28.46,72,30.87-1.61,18.1-6.94,31.47-15.79,38.91-13.37,11.26-32.37,7.64-33.07,7.54a17.6,17.6,0,0,0-7.54,34.38,79.86,79.86,0,0,0,15.38,1.41c12.77,0,31.47-2.72,47.45-15.89,17.39-14.37,27-36.79,29-66.75a262.38,262.38,0,0,0,28.85-4A17.6,17.6,0,1,0,400.5,595c-49.76,9.55-84.75,4-104.15-16.08a58.68,58.68,0,0,1-8-10.76c-5.93-10.16-8.75-21.62-10-32.57a141.52,141.52,0,0,1,.41-32.58V503H520.94c-2.81,19.5-9.55,34.08-19.8,42.63-15.58,13.07-35.29,9.75-35.39,9.75a17.6,17.6,0,0,0-16.28,5.53,17.09,17.09,0,0,0-5,9.15,18.24,18.24,0,0,0,14.48,21.41c1.5.3,36.69,6.64,65.54-17.49a78.75,78.75,0,0,0,12.17-13.07c11.26-14.78,18.4-34.08,21.11-57.91h113c.4,0,.81.1,1.21.1h45.24C750.27,524.77,771.78,561.56,771.78,605.19Z"/></g></g></svg>